<svg xmlns="http://www.w3.org/2000/svg" viewBox="0 0 32 20"><rect width="32" height="20" fill="#b22234"/><g fill="#fff"><rect y="2" width="32" height="2"/><rect y="6" width="32" height="2"/><rect y="10" width="32" height="2"/><rect y="14" width="32" height="2"/><rect y="18" width="32" height="2"/></g><rect width="12" height="8" fill="#3c3b6e"/><g fill="#fff"><circle cx="2" cy="2" r="0.7"/><circle cx="4" cy="2" r="0.7"/><circle cx="6" cy="2" r="0.7"/><circle cx="8" cy="2" r="0.7"/><circle cx="10" cy="2" r="0.7"/><circle cx="2" cy="4" r="0.7"/><circle cx="4" cy="4" r="0.7"/><circle cx="6" cy="4" r="0.7"/><circle cx="8" cy="4" r="0.7"/><circle cx="10" cy="4" r="0.7"/><circle cx="2" cy="6" r="0.7"/><circle cx="4" cy="6" r="0.7"/><circle cx="6" cy="6" r="0.7"/><circle cx="8" cy="6" r="0.7"/><circle cx="10" cy="6" r="0.7"/></g></svg>